<svg viewBox="0 0 48 48" fill="none" xmlns="http://www.w3.org/2000/svg" width="48" height="48">
  <rect width="48" height="48" rx="10" fill="#0A0F1E"/>
  <circle cx="24" cy="24" r="20" stroke="#00D4FF" stroke-width="1.5" fill="none"/>
  <line x1="12" y1="17" x2="24" y2="24" stroke="#00D4FF" stroke-width="1.5"/>
  <line x1="24" y1="24" x2="36" y2="17" stroke="#00D4FF" stroke-width="1.5"/>
  <line x1="12" y1="17" x2="21" y2="12" stroke="#00D4FF" stroke-width="1.5"/>
  <line x1="21" y1="12" x2="36" y2="17" stroke="#00D4FF" stroke-width="1.5"/>
  <line x1="24" y1="24" x2="15" y2="32" stroke="#00D4FF" stroke-width="1.5"/>
  <line x1="24" y1="24" x2="33" y2="32" stroke="#00D4FF" stroke-width="1.5"/>
  <line x1="15" y1="32" x2="33" y2="32" stroke="#00D4FF" stroke-width="1.5"/>
  <line x1="12" y1="17" x2="15" y2="32" stroke="#00D4FF" stroke-width="1.5"/>
  <line x1="36" y1="17" x2="33" y2="32" stroke="#00D4FF" stroke-width="1.5"/>
  <circle cx="12" cy="17" r="2.5" fill="#00D4FF"/>
  <circle cx="21" cy="12" r="2" fill="#00D4FF"/>
  <circle cx="36" cy="17" r="2.5" fill="#00D4FF"/>
  <circle cx="24" cy="24" r="3" fill="#00D4FF"/>
  <circle cx="15" cy="32" r="2" fill="#00D4FF"/>
  <circle cx="33" cy="32" r="2" fill="#00D4FF"/>
</svg>
