<svg viewBox="0 0 200 50" fill="none" xmlns="http://www.w3.org/2000/svg" width="200" height="50">
  <!-- Icon -->
  <g transform="translate(0,0)">
    <circle cx="25" cy="25" r="22" stroke="#00D4FF" stroke-width="1.5" fill="none"/>
    <line x1="12.5" y1="17.5" x2="25" y2="25" stroke="#00D4FF" stroke-width="1.5"/>
    <line x1="25" y1="25" x2="37.5" y2="17.5" stroke="#00D4FF" stroke-width="1.5"/>
    <line x1="12.5" y1="17.5" x2="22.5" y2="12.5" stroke="#00D4FF" stroke-width="1.5"/>
    <line x1="22.5" y1="12.5" x2="37.5" y2="17.5" stroke="#00D4FF" stroke-width="1.5"/>
    <line x1="25" y1="25" x2="15" y2="32.5" stroke="#00D4FF" stroke-width="1.5"/>
    <line x1="25" y1="25" x2="35" y2="32.5" stroke="#00D4FF" stroke-width="1.5"/>
    <line x1="15" y1="32.5" x2="35" y2="32.5" stroke="#00D4FF" stroke-width="1.5"/>
    <line x1="12.5" y1="17.5" x2="15" y2="32.5" stroke="#00D4FF" stroke-width="1.5"/>
    <line x1="37.5" y1="17.5" x2="35" y2="32.5" stroke="#00D4FF" stroke-width="1.5"/>
    <circle cx="12.5" cy="17.5" r="3" fill="#00D4FF"/>
    <circle cx="22.5" cy="12.5" r="2.5" fill="#00D4FF"/>
    <circle cx="37.5" cy="17.5" r="3" fill="#00D4FF"/>
    <circle cx="25" cy="25" r="3.5" fill="#00D4FF"/>
    <circle cx="15" cy="32.5" r="2.5" fill="#00D4FF"/>
    <circle cx="35" cy="32.5" r="2.5" fill="#00D4FF"/>
  </g>
  <!-- Text: AlgoPronos -->
  <text x="55" y="23" font-family="Arial, Helvetica, sans-serif" font-size="14" font-weight="700" fill="#FFFFFF">AlgoPronos</text>
  <!-- Text: AI -->
  <text x="148" y="23" font-family="Arial, Helvetica, sans-serif" font-size="14" font-weight="700" fill="#00D4FF">AI</text>
  <!-- Tagline -->
  <text x="56" y="37" font-family="Arial, Helvetica, sans-serif" font-size="7" font-weight="500" fill="#00D4FF" letter-spacing="2">DATA &gt; EMOTION</text>
</svg>
